<?xml version="1.0" encoding="utf-8"?>
<!-- Generator: Adobe Illustrator 26.0.1, SVG Export Plug-In . SVG Version: 6.00 Build 0)  -->
<svg version="1.1" id="Layer_1" xmlns="http://www.w3.org/2000/svg" xmlns:xlink="http://www.w3.org/1999/xlink" x="0px" y="0px"
	 viewBox="0 0 841.9 595.3" style="enable-background:new 0 0 841.9 595.3;" xml:space="preserve">
<style type="text/css">
	.st0{fill:#2D9359;}
</style>
<g>
	<path class="st0" d="M127.5,285.8h-69c-16,0-29.1,13-29.1,29.1v0h34.5v103.8c0,0,0,0,0,0h0c16,0,29.1-13,29.1-29.1v-74.7h5.5
		C114.5,314.9,127.5,301.9,127.5,285.8L127.5,285.8C127.5,285.8,127.5,285.8,127.5,285.8z"/>
	<path class="st0" d="M279.5,285.7h-10.6l-28.5,85.1l-28.4-85.1h-10.6c-4.6,0-9,2.2-11.7,6c-2.7,3.8-3.4,8.6-2,13l12.8,38.5
		l-9.2,27.6l-28.4-85.1c0,0,0,0,0,0h-10.6c-4.6,0-9,2.2-11.7,6c-2.7,3.8-3.4,8.6-2,13l37.3,111.9c0,0,0,0,0,0h1.6
		c17.4,0,32.8-11.1,38.3-27.5l0,0l9.2,27.5h0c18.3,0,34.6-11.7,40.4-29.1l27.8-82.8c1.5-4.4,0.7-9.2-2-13
		C288.4,287.9,284.1,285.7,279.5,285.7z"/>
	<path class="st0" d="M358.8,285.9c-36,0-65.2,29.2-65.2,65.2c0,36,29.2,65.2,65.2,65.2c36,0,65.2-29.2,65.2-65.2
		C423.9,315.1,394.8,285.9,358.8,285.9z M358.8,387.2L358.8,387.2c-20,0-36.2-16.2-36.2-36.1c0-20,16.2-36.2,36.2-36.2
		c20,0,36.2,16.2,36.2,36.2C394.9,371,378.7,387.2,358.8,387.2z"/>
	<path class="st0" d="M543.9,385h-25.4V273.3l0,0c-16.1,0-29.1,13-29.1,29.1v111.7h83.6c0,0,0,0,0,0v0C573,398,559.9,385,543.9,385z
		"/>
	<path class="st0" d="M610.5,272.4L610.5,272.4c-16.1,0-29.1,13-29.1,29.1v112.6l0,0c16.1,0,29.1-13,29.1-29.1V272.4z"/>
	<path class="st0" d="M620.6,274.1h30.7l35.1,69.8v-40.5c0-16.1,13-29.1,29.1-29.1l0,0V405h-30.8c0,0,0,0,0,0l-35-69.6v49.7
		c0,16-13,29.1-29.1,29.1h0V274.1z"/>
	<path class="st0" d="M742.5,273.8h67.3c0,0,0,0,0,0v4.7c0,13.5-10.9,24.4-24.4,24.4h-28.3v21.8h36.3c0,0,0,0,0,0v1.5
		c0,15.2-12.3,27.6-27.6,27.6h-8.8v21.8h52.7c0,0,0,0,0,0v0c0,16-13,29.1-29.1,29.1h-52.7c0,0,0,0,0,0V288.2
		C728.1,280.3,734.5,273.8,742.5,273.8z"/>
	<g>
		<path class="st0" d="M340.4,259.4L442.6,98.5l0,0h0.1c0,0,15.5,2.1,19.3,5.9c3.8,3.8,5.9,8.9,5.9,14.2l5.8,88.5h20.1v32.1
			c0,5.3-2.1,10.5-5.9,14.2c-3.8,3.8-8.9,5.9-14.2,5.9v154.4h0c-28.9,0-38.5-23.5-38.5-52.4v-102h-79 M435.2,162.5L412,207h23.2
			V162.5z"/>
	</g>
</g>
</svg>
