<?xml version="1.0" encoding="utf-8"?>
<!-- Generator: Adobe Illustrator 25.4.1, SVG Export Plug-In . SVG Version: 6.00 Build 0)  -->
<svg version="1.1" id="Layer_1" xmlns="http://www.w3.org/2000/svg" xmlns:xlink="http://www.w3.org/1999/xlink" x="0px" y="0px"
	 viewBox="0 0 130.1 233.5" style="enable-background:new 0 0 130.1 233.5;" xml:space="preserve">
<style type="text/css">
	.st0{fill:#FFFFFF;}
</style>
<path class="st0" d="M0,141.3l94.2-94.2c4.4-4.3,6.8-10.2,6.8-16.4V0L6.7,94.2C2.4,98.5,0,104.4,0,110.5V141.3z"/>
<path class="st0" d="M0,229.1l95.4-95.5c3.5-3.5,5.5-8.3,5.5-13.3V95.5L5,191.4c-3.2,3.2-5,7.6-5,12.2V229.1z"/>
<path class="st0" d="M29.1,156l95.2-95.2c3.7-3.7,5.8-8.7,5.8-14V21.1l-95,95c-3.8,3.8-5.9,8.9-5.9,14.3V156z"/>
</svg>
