<?xml version="1.0" encoding="utf-8"?>
<!-- Generator: Adobe Illustrator 26.0.1, SVG Export Plug-In . SVG Version: 6.00 Build 0)  -->
<svg version="1.1" id="Layer_1" xmlns="http://www.w3.org/2000/svg" xmlns:xlink="http://www.w3.org/1999/xlink" x="0px" y="0px"
	 viewBox="0 0 841.9 595.3" style="enable-background:new 0 0 841.9 595.3;" xml:space="preserve">
<style type="text/css">
	.st0{fill:#010202;}
</style>
<g>
	<path class="st0" d="M268.6,348.8l174.6-174.6c8.1-8.1,12.6-19,12.6-30.4V86.7L281,261.5c-8,8-12.5,18.8-12.5,30.1V348.8z"/>
	<path class="st0" d="M268.6,511.5l177-177c6.5-6.5,10.2-15.4,10.2-24.7v-46L277.9,441.6c-6,6-9.4,14.1-9.4,22.6V511.5z"/>
	<path class="st0" d="M322.5,375.9L499,199.5c6.9-6.9,10.7-16.2,10.7-25.9v-47.7L333.5,302c-7,7-11,16.6-11,26.5V375.9z"/>
	<g>
		<path class="st0" d="M361.2,464h-23.9c-5.5,0-10,4.5-10,10v0h11.9v35.9c0,0,0,0,0,0h0c5.5,0,10-4.5,10-10V474h1.9
			C356.7,474,361.2,469.5,361.2,464L361.2,464C361.2,464,361.2,464,361.2,464z"/>
		<path class="st0" d="M413.7,463.9H410l-9.9,29.4l-9.8-29.4h-3.7c-1.6,0-3.1,0.8-4,2.1c-0.9,1.3-1.2,3-0.7,4.5l4.4,13.3l-3.2,9.5
			l-9.8-29.4c0,0,0,0,0,0h-3.7c-1.6,0-3.1,0.8-4,2.1c-0.9,1.3-1.2,3-0.7,4.5l12.9,38.7c0,0,0,0,0,0h0.6c6,0,11.3-3.8,13.2-9.5v0
			l3.2,9.5l0,0c6.3,0,12-4,14-10l9.6-28.6c0.5-1.5,0.3-3.2-0.7-4.5C416.8,464.7,415.3,463.9,413.7,463.9z"/>
		<path class="st0" d="M441.1,464c-12.4,0-22.5,10.1-22.5,22.5c0,12.4,10.1,22.5,22.5,22.5c12.4,0,22.5-10.1,22.5-22.5
			C463.6,474.1,453.5,464,441.1,464z M441.1,499L441.1,499c-6.9,0-12.5-5.6-12.5-12.5c0-6.9,5.6-12.5,12.5-12.5
			c6.9,0,12.5,5.6,12.5,12.5C453.6,493.4,448,499,441.1,499z"/>
		<path class="st0" d="M505.1,498.3h-8.8v-38.6l0,0c-5.5,0-10,4.5-10,10v38.6h28.9c0,0,0,0,0,0v0
			C515.1,502.8,510.6,498.3,505.1,498.3z"/>
		<path class="st0" d="M528.1,459.3L528.1,459.3c-5.5,0-10,4.5-10,10v38.9l0,0c5.5,0,10-4.5,10-10V459.3z"/>
		<path class="st0" d="M531.6,459.9h10.6l12.1,24.1v-14c0-5.5,4.5-10,10-10l0,0v45.2h-10.6c0,0,0,0,0,0l-12.1-24v17.2
			c0,5.5-4.5,10-10,10h0V459.9z"/>
		<path class="st0" d="M573.7,459.8H597c0,0,0,0,0,0v1.6c0,4.7-3.8,8.4-8.4,8.4h-9.8v7.5h12.5c0,0,0,0,0,0v0.5
			c0,5.3-4.3,9.5-9.5,9.5h-3v7.5H597c0,0,0,0,0,0l0,0c0,5.5-4.5,10-10,10h-18.2c0,0,0,0,0,0v-40.2
			C568.7,462.1,571,459.8,573.7,459.8z"/>
		<g>
			<path class="st0" d="M434.8,454.8l35.3-55.6l0,0h0c0,0,5.4,0.7,6.7,2c1.3,1.3,2,3.1,2,4.9l2,30.6h7v11.1c0,1.8-0.7,3.6-2,4.9
				c-1.3,1.3-3.1,2-4.9,2v53.4l0,0c-10,0-13.3-8.1-13.3-18.1v-35.2h-27.3 M467.5,421.4l-8,15.4h8V421.4z"/>
		</g>
	</g>
</g>
</svg>
