<svg width="842" height="596" viewBox="0 0 842 596" fill="none" xmlns="http://www.w3.org/2000/svg">
<mask id="mask0_159_2" style="mask-type:alpha" maskUnits="userSpaceOnUse" x="29" y="98" width="781" height="321">
<path d="M127.5 285.8H58.4999C42.4999 285.8 29.3999 298.8 29.3999 314.9H63.8999V418.7C79.8999 418.7 92.9999 405.7 92.9999 389.6V314.9H98.4999C114.5 314.9 127.5 301.9 127.5 285.8Z" fill="#2D9359"/>
<path d="M279.5 285.7H268.9L240.4 370.8L212 285.7H201.4C196.8 285.7 192.4 287.9 189.7 291.7C187 295.5 186.3 300.3 187.7 304.7L200.5 343.2L191.3 370.8L162.9 285.7H152.3C147.7 285.7 143.3 287.9 140.6 291.7C137.9 295.5 137.2 300.3 138.6 304.7L175.9 416.6H177.5C194.9 416.6 210.3 405.5 215.8 389.1L225 416.6C243.3 416.6 259.6 404.9 265.4 387.5L293.2 304.7C294.7 300.3 293.9 295.5 291.2 291.7C288.4 287.9 284.1 285.7 279.5 285.7Z" fill="#2D9359"/>
<path d="M358.8 285.9C322.8 285.9 293.6 315.1 293.6 351.1C293.6 387.1 322.8 416.3 358.8 416.3C394.8 416.3 424 387.1 424 351.1C423.9 315.1 394.8 285.9 358.8 285.9ZM358.8 387.2C338.8 387.2 322.6 371 322.6 351.1C322.6 331.1 338.8 314.9 358.8 314.9C378.8 314.9 395 331.1 395 351.1C394.9 371 378.7 387.2 358.8 387.2Z" fill="#2D9359"/>
<path d="M543.9 385H518.5V273.3C502.4 273.3 489.4 286.3 489.4 302.4V414.1H573C573 398 559.9 385 543.9 385Z" fill="#2D9359"/>
<path d="M610.5 272.4C594.4 272.4 581.4 285.4 581.4 301.5V414.1C597.5 414.1 610.5 401.1 610.5 385V272.4Z" fill="#2D9359"/>
<path d="M620.6 274.1H651.3L686.4 343.9V303.4C686.4 287.3 699.4 274.3 715.5 274.3V405H684.7L649.7 335.4V385.1C649.7 401.1 636.7 414.2 620.6 414.2V274.1Z" fill="#2D9359"/>
<path d="M742.5 273.8H809.8V278.5C809.8 292 798.9 302.9 785.4 302.9H757.1V324.7H793.4V326.2C793.4 341.4 781.1 353.8 765.8 353.8H757V375.6H809.7C809.7 391.6 796.7 404.7 780.6 404.7H727.9V288.2C728.1 280.3 734.5 273.8 742.5 273.8Z" fill="#2D9359"/>
<path d="M340.4 259.4L442.6 98.5H442.7C442.7 98.5 458.2 100.6 462 104.4C465.8 108.2 467.9 113.3 467.9 118.6L473.7 207.1H493.8V239.2C493.8 244.5 491.7 249.7 487.9 253.4C484.1 257.2 479 259.3 473.7 259.3V413.7C444.8 413.7 435.2 390.2 435.2 361.3V259.3H356.2M435.2 162.5L412 207H435.2V162.5Z" fill="#2D9359"/>
</mask>
<g mask="url(#mask0_159_2)">
<rect x="29.3999" y="98.5" width="799.734" height="320.2" fill="black"/>
</g>
</svg>
