<?xml version="1.0" encoding="utf-8"?>
<!-- Generator: Adobe Illustrator 25.4.1, SVG Export Plug-In . SVG Version: 6.00 Build 0)  -->
<svg version="1.1" id="Layer_1" xmlns="http://www.w3.org/2000/svg" xmlns:xlink="http://www.w3.org/1999/xlink" x="0px" y="0px"
	 viewBox="0 0 182.2 233.5" style="enable-background:new 0 0 182.2 233.5;" xml:space="preserve">
<style type="text/css">
	.st0{fill:#FFFFFF;}
</style>
<path class="st0" d="M0,141.3l94.2-94.2c4.4-4.3,6.8-10.2,6.8-16.4V0L6.7,94.2C2.4,98.5,0,104.4,0,110.5V141.3z"/>
<path class="st0" d="M0,229.1l95.4-95.5c3.5-3.5,5.5-8.3,5.5-13.3V95.5L5,191.4c-3.2,3.2-5,7.6-5,12.2V229.1z"/>
<path class="st0" d="M29.1,156l95.2-95.2c3.7-3.7,5.8-8.7,5.8-14V21.1l-95,95c-3.8,3.8-5.9,8.9-5.9,14.3V156z"/>
<path class="st0" d="M49.9,203.4H37.1c-3,0-5.4,2.4-5.4,5.4h6.4v19.3c0,0,0,0,0,0c3,0,5.4-2.4,5.4-5.4v-13.9h1
	C47.5,208.9,49.9,206.4,49.9,203.4C49.9,203.4,49.9,203.4,49.9,203.4"/>
<path class="st0" d="M78.3,203.4h-2L71,219.3l-5.3-15.9h-2c-0.9,0-1.7,0.4-2.2,1.1c-0.5,0.7-0.6,1.6-0.4,2.4l2.4,7.2l-1.7,5.1
	l-5.3-15.9h-2c-0.9,0-1.7,0.4-2.2,1.1c-0.5,0.7-0.6,1.6-0.4,2.4l7,20.9h0.3c3.2,0,6.1-2.1,7.1-5.1l1.7,5.1c3.4,0,6.4-2.2,7.5-5.4
	l5.2-15.4c0.3-0.8,0.1-1.7-0.4-2.4C79.9,203.8,79.1,203.4,78.3,203.4"/>
<path class="st0" d="M93,203.4c-6.7,0-12.2,5.4-12.2,12.2c0,6.7,5.4,12.2,12.2,12.2c6.7,0,12.2-5.4,12.2-12.2
	C105.2,208.9,99.7,203.5,93,203.4 M93,222.3L93,222.3c-3.7,0-6.7-3-6.7-6.7c0-3.7,3-6.7,6.7-6.7c3.7,0,6.7,3,6.7,6.7
	C99.8,219.3,96.8,222.3,93,222.3"/>
<path class="st0" d="M127.5,221.9h-4.7v-20.8c-3,0-5.4,2.4-5.4,5.4v20.8h15.6c0,0,0,0,0,0C132.9,224.4,130.5,221.9,127.5,221.9"/>
<path class="st0" d="M139.9,200.9L139.9,200.9c-3,0-5.4,2.4-5.4,5.4v21c3,0,5.4-2.4,5.4-5.4V200.9z"/>
<path class="st0" d="M141.8,201.3h5.7l6.5,13v-7.5c0-3,2.4-5.4,5.4-5.4v24.4h-5.7l0,0l-6.5-13v9.3c0,3-2.4,5.4-5.4,5.4V201.3z"/>
<path class="st0" d="M164.5,201.2h12.5c0,0,0,0,0,0v0.9c0,2.5-2,4.5-4.5,4.5h-5.3v4.1h6.8c0,0,0,0,0,0v0.3c0,2.8-2.3,5.1-5.1,5.1
	h-1.6v4.1h9.8c0,0,0,0,0,0c0,3-2.4,5.4-5.4,5.4h-9.8c0,0,0,0,0,0v-21.7C161.9,202.4,163.1,201.2,164.5,201.2"/>
<path class="st0" d="M89.6,198.5l19-30h0c0,0,2.9,0.4,3.6,1.1c0.7,0.7,1.1,1.7,1.1,2.7l1.1,16.5h3.7v6c0,1-0.4,1.9-1.1,2.7
	c-0.7,0.7-1.7,1.1-2.7,1.1v28.8c-5.4,0-7.2-4.4-7.2-9.8v-19H92.6 M107.3,180.5l-4.3,8.3h4.3V180.5z"/>
</svg>
